<svg xmlns="http://www.w3.org/2000/svg" width="170" height="123" fill="none" viewBox="0 0 170 123">
  <circle cx="85" cy="98" r="13" fill="#CCF281"/>
  <path fill="#3B82F6" fill-rule="evenodd" d="M24.173 122.871h60.809v-12.882c-.17.007-.34.011-.51.011-6.627 0-12-5.373-12-12s5.373-12 12-12c.17 0 .34.004.51.01V0h-.491c-8.737 0-17.163.598-25.09 1.708-3.061.429-4.984 3.816-4.436 6.858 1.07 5.938-6.299 7.787-9.11 2.449l-2.333-4.43a2.278 2.278 0 0 0-2.606-1.133c-1.307.355-1.977 1.774-1.467 3.028l18.73 46.046c.642 1.579.927 3.289.728 4.982-1.421 12.09-5.829 16.118-12.478 11.273-7.103-5.174-16.24-20.088-25.588-41.766l-.084-.195-.09-.21-.06-.137c-2.734-6.372-10.794-9.098-15.233-3.771C1.9 28.87 0 33.387 0 38.104c0 1.208.125 2.404.369 3.583.28 1.358.454 2.742.55 4.125.018.255.042.511.072.768l7.29 62.155c.946 8.06 7.777 14.136 15.892 14.136Zm121.636 0H85v-12.882c.17.007.34.011.51.011 6.628 0 12-5.373 12-12s-5.372-12-12-12c-.17 0-.34.004-.51.01V0h.491c8.737 0 17.163.598 25.09 1.708 3.061.429 4.984 3.816 4.436 6.858-1.069 5.938 6.299 7.787 9.11 2.449l2.333-4.43a2.279 2.279 0 0 1 2.606-1.133c1.307.355 1.977 1.774 1.467 3.028l-18.73 46.046c-.642 1.579-.927 3.289-.728 4.982 1.421 12.09 5.829 16.118 12.478 11.273 7.103-5.174 16.24-20.088 25.588-41.766l.084-.195.091-.21.058-.137c2.735-6.372 10.795-9.098 15.234-3.771 3.474 4.169 5.374 8.685 5.374 13.402 0 1.208-.125 2.404-.369 3.583a30.948 30.948 0 0 0-.55 4.125c-.018.255-.042.511-.072.768l-7.291 62.155c-.945 8.06-7.775 14.136-15.891 14.136Z" clip-rule="evenodd"/>
</svg>
